# xmcd
#
# Track frame offsets: 
#        150
#        13690
#        26132
#        37237
#        50225
#        68077
#        78165
#        90960
#        102882
#        114812
#        127867
#        138197
#        151572
#        163147
#
# Disc length: 2346 seconds
#
# Revision: 0
# Processed by: cddbd v1.5.2PL0 Copyright (c) Steve Scherf et al.
# Submitted via: ExactAudioCopy v1.0b1
#
DISCID=a409280e
DTITLE=Various Artist - BLUES ANTHOLOGY vol.3 MODERN and JUMP BLUES [DISC 2]
DYEAR=1900
DGENRE=Blues
TTITLE0=RAY CHARLES - BABY WON'T YOU PLEASE COME HOME
TTITLE1=RAY CHARLES - I'VE HAD MY FUN (GOING DOWN SLOW)
TTITLE2=RAY CHARLES - A SENTIMENTAL BLUES
TTITLE3=RAY CHARLES - YOU ALWAYS MISS THE WATER (WHEN THE WELL RUNS DR
TTITLE3=Y)
TTITLE4=JIMMY WHITERSPOON - AIN'T NOBODY'S BUSINESS
TTITLE5=JIMMY WHITERSPOON - HAVE A BALL
TTITLE6=JIMMY WHITERSPOON - GOOD JUMPIN'
TTITLE7=MUDDY WATERS - DISSATISFIED
TTITLE8=MEMPHIS SLIM - GOOD TIME ROLL CREOLE
TTITLE9=MEMPHIS SLIM - ONE MAN'S MAD
TTITLE10=B. B. KING - DON'T KEEP ME WAITING
TTITLE11=CHARLES BROWN - MOONLIGHT AND SHADOWS
TTITLE12=ROY BROWN - CHECKIN OUT
TTITLE13=SHIRLEY - BIG BOSS MAN
EXTD=
EXTT0=
EXTT1=
EXTT2=
EXTT3=
EXTT4=
EXTT5=
EXTT6=
EXTT7=
EXTT8=
EXTT9=
EXTT10=
EXTT11=
EXTT12=
EXTT13=
PLAYORDER=
